<svg width="11" height="14" viewBox="0 0 11 14" fill="none" xmlns="http://www.w3.org/2000/svg">
    <g clip-path="url(#clip0_1_8)">
    <path d="M6.04928 13.65C7.48798 11.8945 10.7692 7.63984 10.7692 5.25C10.7692 2.35156 8.35737 0 5.38462 0C2.41186 0 0 2.35156 0 5.25C0 7.63984 3.28125 11.8945 4.71995 13.65C5.0649 14.0684 5.70433 14.0684 6.04928 13.65ZM5.38462 3.5C5.86064 3.5 6.31718 3.68437 6.65378 4.01256C6.99039 4.34075 7.17949 4.78587 7.17949 5.25C7.17949 5.71413 6.99039 6.15925 6.65378 6.48744C6.31718 6.81563 5.86064 7 5.38462 7C4.90859 7 4.45205 6.81563 4.11545 6.48744C3.77885 6.15925 3.58974 5.71413 3.58974 5.25C3.58974 4.78587 3.77885 4.34075 4.11545 4.01256C4.45205 3.68437 4.90859 3.5 5.38462 3.5Z" fill="black"/>
    </g>
    <defs>
    <clipPath id="clip0_1_8">
    <rect width="10.7692" height="14" fill="white"/>
    </clipPath>
    </defs>
</svg>