<svg width="49" height="23" viewBox="0 0 49 23" fill="none" xmlns="http://www.w3.org/2000/svg" aria-label="braze">
    <path d="M48.174 12.4759C47.9344 12.4759 47.7276 12.5985 47.5291 12.7199C47.5291 12.7199 47.1819 12.9246 47.0324 13.0105C46.2034 13.4874 45.3436 13.7759 44.4216 13.6996C43.9026 13.6568 43.4202 13.5298 43.0077 13.236C42.939 13.1871 42.876 13.1307 42.803 13.0721C42.8382 13.0551 42.8564 13.0457 42.8745 13.0378C44.0205 12.539 45.0712 11.8639 46.0652 11.083C46.6849 10.5962 47.2256 10.0059 47.6168 9.32378C48.0736 8.52761 48.3121 7.69506 48.1971 6.81884C48.0813 5.9388 47.635 5.30333 46.8042 4.9875C46.204 4.75935 45.5609 4.77812 44.9076 4.918C43.861 5.14234 42.9622 5.68045 42.2098 6.47193C40.7744 7.98161 40.1689 9.72525 40.3067 11.663C40.3199 11.8496 40.3489 12.0331 40.3691 12.2032C39.4874 12.6419 38.6153 13.0765 37.7417 13.5075C37.7133 13.5216 37.6798 13.5219 37.6529 13.5073C37.4943 13.4213 37.3494 13.3105 37.1849 13.2366C36.5192 12.9378 35.7914 12.9009 35.0407 12.9718C34.9038 12.9847 34.7665 13.0052 34.6117 13.0246C34.6472 12.9788 34.6689 12.9492 34.6917 12.9208C35.5345 11.8662 39.129 7.45166 40.0425 6.30184C40.0436 6.29862 40.0451 6.29539 40.0463 6.29217C40.0738 6.25434 40.092 6.21064 40.114 6.16929C40.1237 6.15199 40.1339 6.13528 40.1425 6.11768C40.1574 6.08484 40.17 6.05199 40.1814 6.01739C40.1979 5.96959 40.2093 5.92091 40.2178 5.87077C40.2205 5.85376 40.2281 5.8388 40.2298 5.8215C40.2304 5.81534 40.2295 5.80948 40.2298 5.80303C40.231 5.78778 40.2295 5.77223 40.2302 5.75699C40.2316 5.71476 40.2327 5.67282 40.2281 5.63265C40.2239 5.59189 40.214 5.55113 40.2043 5.51036C40.2017 5.50069 40.2008 5.49042 40.1979 5.48075C40.1941 5.46638 40.1932 5.45171 40.1885 5.43734C40.0319 4.9573 39.5152 4.69484 39.0349 4.85085C39.0126 4.85818 36.7553 5.57283 33.8774 5.14791C33.3775 5.07078 32.9115 5.41946 32.8373 5.91945C32.7634 6.42002 33.1089 6.88541 33.6091 6.9596C34.3698 7.07191 35.09 7.11562 35.7506 7.11562C36.3781 7.11562 36.9485 7.07547 37.4503 7.01828C36.696 7.94286 33.9314 11.27 33.0088 12.3994C32.8247 12.6252 32.6174 12.8354 32.4071 13.039C32.0966 13.3398 31.7547 13.5973 31.3485 13.7453C30.6116 14.0137 29.9601 13.7216 29.7384 13.024C29.6184 12.646 29.6193 12.2478 29.6868 11.8448C29.7685 11.358 31.0025 6.49011 31.1304 6.03323C31.1333 6.02296 31.1412 5.99305 31.1436 5.98279C31.1436 5.98279 31.1647 5.88162 31.1714 5.81886C31.2236 5.3218 30.8629 4.91917 30.3662 4.91917C29.8694 4.91917 29.4932 5.30509 29.3624 5.81886C29.3621 5.82033 29.2903 6.14671 29.2545 6.27105C29.2545 6.27105 29.2082 6.17193 29.1923 6.1385C28.8833 5.48896 28.3983 5.0353 27.664 4.89044C26.7039 4.701 25.7658 4.89689 24.8633 5.41007C24.0325 5.8822 23.4067 6.56342 22.9048 7.36341C22.4948 8.01645 22.1969 8.71382 21.9083 9.41587C21.613 10.1352 21.323 10.8569 20.999 11.5659C20.7131 12.1923 20.3257 12.7651 19.804 13.2445C19.6029 13.4293 19.3853 13.5862 19.1217 13.6636C18.8138 13.7539 18.5 13.6345 18.3651 13.3686C18.3012 13.2428 18.259 13.0988 18.2373 12.9548C18.1643 12.473 18.2572 11.9841 18.3572 11.4982C18.5255 10.6818 18.7938 9.82405 19.1387 9.04903C19.4785 8.28512 19.8498 7.53231 20.2148 6.77749C20.2343 6.73732 20.2504 6.69773 20.2644 6.65814C20.3061 6.56606 20.3345 6.46753 20.3453 6.3646C20.3973 5.8693 20.0378 5.46755 19.5425 5.46755C19.4695 5.46755 18.9985 5.54585 18.834 5.5781C17.6942 5.80215 17.4361 5.88074 16.3066 5.81476C16.2245 5.80977 16.143 5.80039 16.0556 5.79247C16.0623 5.75259 16.0615 5.60714 16.0638 5.5869C16.1136 5.11155 15.7688 4.72592 15.2932 4.72592C14.8178 4.72592 14.4314 5.10773 14.3419 5.5869C14.3405 5.59453 14.307 5.73206 14.2513 5.97575C14.0443 6.88394 13.8021 7.78597 13.4783 8.67249C13.1042 9.69648 12.5831 10.7443 11.9107 11.6393C11.6034 12.0486 11.1544 12.4269 10.7427 12.7381C10.7028 12.7683 10.6586 12.7929 10.5937 12.8345C10.6137 12.7938 10.619 12.7815 10.6254 12.77C11.204 11.7543 11.5696 10.6994 11.6972 9.60146C11.7327 9.33726 11.7582 9.07159 11.7652 8.80235C11.7834 8.09039 11.6855 7.40859 11.4078 6.78365C10.8606 5.55289 9.9023 4.86258 8.47507 4.81976C7.76955 4.79865 7.03939 4.96111 6.38959 5.31477C6.35674 5.33265 6.32243 5.34849 6.28637 5.36667C6.28549 5.35113 6.28431 5.3479 6.28519 5.34497C6.28519 5.34497 6.87519 3.13329 7.17107 0.945358C7.23851 0.44713 6.88633 0.022505 6.38401 0.000804614C5.94035 -0.0182566 5.55767 0.303438 5.50049 0.743602C5.1225 3.66612 4.24602 7.26252 3.34372 9.79591C2.86047 11.1531 1.957 12.2876 0.680242 13.075C0.629805 13.1061 0.562359 13.1422 0.486997 13.1803C0.0873138 13.3814 -0.101238 13.8474 0.0544712 14.2668C0.234226 14.7515 0.794605 14.9756 1.2588 14.7483C2.01711 14.377 2.70417 13.8818 3.30414 13.2352C3.32642 13.2111 3.34929 13.1879 3.37833 13.1571C3.39035 13.1912 3.40002 13.2178 3.40941 13.2431C3.63432 13.8674 4.01846 14.4248 4.55626 14.8055C5.21839 15.2738 5.99753 15.462 6.84352 15.484C6.88193 15.4849 6.91536 15.4788 6.95172 15.4764L6.94703 15.4832C7.61148 15.5005 8.27748 15.428 8.94104 15.2697C10.9585 14.7885 12.7232 13.6815 13.8683 11.8721C14.6322 10.6651 15.1601 9.33139 15.5492 7.99802C15.6081 7.79595 15.6621 7.59305 15.7216 7.38045C17.8898 7.53175 18.0954 7.29478 18.0801 7.32766C17.9757 7.55577 17.8696 7.8229 17.7736 8.05401C17.2279 9.36428 16.7353 10.7469 16.5295 12.1278C16.4335 12.7712 16.4139 13.4085 16.5723 14.0204C16.7506 14.7105 17.1502 15.2014 17.8576 15.3911C18.7352 15.6269 19.5741 15.4571 20.3612 14.8597C20.8785 14.4667 21.2837 13.975 21.6447 13.4445C21.6802 13.3923 21.716 13.3404 21.7614 13.2738C21.7983 13.3735 21.8104 13.4082 21.8494 13.5038C22.028 13.9424 22.2799 14.3518 22.6235 14.6744C23.4634 15.4632 24.4988 15.6876 25.7201 15.3263C26.4852 15.0999 27.1074 14.6169 27.6505 14.0207C27.7408 13.9216 27.827 13.819 27.925 13.7067C27.9508 13.809 27.9702 13.897 27.9951 13.9832C28.1434 14.5035 28.4115 14.9298 28.9044 15.1765C29.5935 15.5207 30.343 15.5923 31.1327 15.3706C31.6266 15.2318 32.1101 15.0331 32.5948 14.8503C33.4772 14.5178 34.3694 14.3401 35.2782 14.3788C35.4838 14.3876 35.6823 14.4243 35.882 14.5026C35.8324 14.5322 35.7946 14.5539 35.7577 14.5771C35.1545 14.9553 34.5431 15.3207 33.9501 15.7157C33.13 16.2618 32.4136 16.9221 31.8705 17.752C31.3048 18.6168 30.9732 19.5338 31.0196 20.523C31.0635 21.4623 31.4641 22.1869 32.25 22.6537C32.9132 23.0478 33.6619 23.0883 34.4463 22.8622C35.7902 22.4748 36.8597 21.674 37.6541 20.4934C38.1461 19.762 38.4628 18.9682 38.6519 18.135C38.8628 17.2054 38.9035 16.2893 38.7047 15.394C38.6695 15.2357 38.6238 15.0808 38.5789 14.9099C39.5187 14.3694 40.9474 13.7953 40.9474 13.7953C40.9767 13.8381 40.9975 13.8677 41.0175 13.8973C41.3679 14.416 41.8514 14.8292 42.4288 15.0885C43.3185 15.4879 44.2862 15.5636 45.2926 15.4371C46.4081 15.2973 47.4479 14.8832 48.41 14.2234C48.41 14.2234 48.9478 13.8474 48.9947 13.3964C49.0489 12.8873 48.6813 12.4759 48.174 12.4759ZM9.99732 9.53052C9.80022 10.8941 9.29907 12.0152 8.3288 12.9513C8.01147 13.2574 7.654 13.4938 7.23998 13.6184C6.56201 13.8225 5.99313 13.6917 5.53245 13.2442C5.15154 12.8741 4.95301 12.3976 4.89349 11.8595C4.72546 10.3408 5.15916 8.93467 6.23446 7.66518C6.50307 7.34784 6.8183 7.08245 7.18307 6.88453C8.07131 6.40243 9.10762 6.61943 9.59496 7.38275C9.85685 7.79302 9.97386 8.26368 10.0003 8.76779C10.0155 9.05692 9.99879 9.35108 9.99732 9.53052ZM27.1913 12.3953C26.8632 12.8193 26.474 13.178 25.9999 13.4337C25.0639 13.9383 24.1513 13.7161 23.6786 12.8686C23.4379 12.4363 23.3387 11.9551 23.3294 11.4457C23.3267 11.3038 23.3323 11.161 23.3382 11.0349C23.3449 10.8862 23.359 10.737 23.3857 10.5897C23.5939 9.43137 24.034 8.42735 24.8401 7.56191C25.2008 7.17482 25.6152 6.86312 26.1131 6.6945C26.9289 6.41797 27.6526 6.68805 28.0611 7.41208C28.3009 7.83729 28.4106 8.31151 28.4135 8.81409C28.4208 10.1062 28.032 11.3079 27.1913 12.3953ZM35.4084 20.5417C35.316 20.6349 35.2163 20.7256 35.1102 20.803C33.9015 21.6869 32.8059 21.1332 32.849 20.0001C32.8687 19.4875 33.0757 19.025 33.3724 18.586C33.7991 17.9547 34.3569 17.4529 34.9732 17.0119C35.6131 16.5538 36.9884 15.7682 37.008 15.7606C37.0966 16.0424 37.1382 16.3312 37.1321 16.6281C37.101 18.1134 36.521 19.4189 35.4084 20.5417ZM42.201 11.5463C42.1743 11.5595 42.1467 11.5706 42.0998 11.5915C42.0937 11.3739 42.0749 11.1674 42.0834 10.9592C42.1336 9.75395 42.5502 8.64225 43.3554 7.64668C43.4525 7.52672 43.5625 7.4162 43.6812 7.31796C44.3527 6.76283 45.1029 6.35785 45.7758 6.59187C46.1726 6.72999 46.401 7.108 46.3779 7.56722C46.3526 8.05897 46.1301 8.48509 45.8245 8.883C45.3993 9.43696 44.8709 9.88151 44.3094 10.2874C43.6405 10.771 42.9349 11.1859 42.201 11.5463Z" fill="#801ED7"></path>
</svg>