<svg width="210" height="120" viewBox="0 0 703 387" fill="none" xmlns="http://www.w3.org/2000/svg">    
    <path d="M101.716 82.4545H149.713L180.679 146.864H181.918L212.884 82.4545H260.881L202.665 191.145V241H159.932V191.145L101.716 82.4545ZM299.917 241H253.468L305.801 82.4545H364.636L416.968 241H370.519L335.838 126.116H334.599L299.917 241ZM291.247 178.449H378.57V210.653H291.247V178.449Z" fill="black"/>
    <path d="M438.88 300.528C438.88 307.392 436.768 313.032 432.544 317.448C428.368 321.816 422.584 324 415.192 324H394.024V319.464H399.928V281.736H394.024V277.2H414.976C422.608 277.2 428.488 279.408 432.616 283.824C436.792 288.192 438.88 293.76 438.88 300.528ZM433.264 300.6C433.264 294.936 431.68 290.376 428.512 286.92C425.392 283.464 420.856 281.736 414.904 281.736H405.184V319.464H414.904C420.856 319.464 425.392 317.784 428.512 314.424C431.68 311.016 433.264 306.408 433.264 300.6ZM449.326 283.68V277.128H454.798V283.68H449.326ZM460.486 324H444.214V319.896H449.83V296.064H444.07V291.96H454.87V319.896H460.486V324ZM500.177 296.064H494.993V323.568C494.993 328.608 493.601 332.616 490.817 335.592C488.081 338.568 484.217 340.056 479.225 340.056C475.865 340.056 472.841 339.288 470.153 337.752C467.513 336.216 465.761 333.84 464.897 330.624L468.929 328.608C469.745 331.104 471.161 332.904 473.177 334.008C475.193 335.16 477.281 335.736 479.441 335.736C482.513 335.736 485.009 334.656 486.929 332.496C488.897 330.384 489.881 327.336 489.881 323.352V317.448C488.921 319.32 487.529 320.952 485.705 322.344C483.881 323.736 481.457 324.432 478.433 324.432C474.641 324.432 471.401 323.088 468.713 320.4C466.025 317.712 464.681 313.848 464.681 308.808C464.681 304.536 465.833 300.552 468.137 296.856C470.441 293.16 474.065 291.312 479.009 291.312C484.097 291.312 487.721 293.208 489.881 297V291.96H500.177V296.064ZM489.881 310.176V304.632C489.881 301.944 488.945 299.784 487.073 298.152C485.249 296.472 483.017 295.632 480.377 295.632C476.777 295.632 474.161 296.928 472.529 299.52C470.945 302.112 470.153 305.088 470.153 308.448C470.153 312.384 471.041 315.312 472.817 317.232C474.641 319.152 476.873 320.112 479.513 320.112C482.585 320.112 485.057 319.056 486.929 316.944C488.801 314.832 489.785 312.576 489.881 310.176ZM508.951 283.68V277.128H514.423V283.68H508.951ZM520.111 324H503.839V319.896H509.455V296.064H503.695V291.96H514.495V319.896H520.111V324ZM547.922 315.36C547.058 321.6 543.674 324.72 537.77 324.72C534.554 324.72 532.082 323.808 530.354 321.984C528.674 320.16 527.834 317.688 527.834 314.568V295.992H522.65V291.96H527.834V281.664H532.874V291.96H545.402V295.992H532.874V313.92C532.874 315.84 533.282 317.4 534.098 318.6C534.962 319.752 536.354 320.328 538.274 320.328C539.522 320.328 540.674 319.944 541.73 319.176C542.834 318.408 543.626 316.728 544.106 314.136L547.922 315.36ZM554.121 294.408C555.801 293.304 557.577 292.512 559.449 292.032C561.321 291.552 563.313 291.312 565.425 291.312C573.057 291.312 576.873 294.888 576.873 302.04V317.304C576.873 319.608 577.785 320.76 579.609 320.76C580.425 320.76 581.145 320.616 581.769 320.328L581.841 323.64C580.545 324.36 579.153 324.72 577.665 324.72C573.873 324.72 571.929 322.56 571.833 318.24V318.096C570.825 319.824 569.385 321.36 567.513 322.704C565.689 324.048 563.481 324.72 560.889 324.72C558.777 324.72 556.617 324.072 554.409 322.776C552.249 321.48 551.169 319.128 551.169 315.72C551.169 311.688 552.753 309.048 555.921 307.8C559.137 306.504 562.545 305.856 566.145 305.856C567.105 305.856 568.065 305.88 569.025 305.928C570.033 305.976 570.969 306.048 571.833 306.144V303.264C571.833 300.96 571.329 299.088 570.321 297.648C569.361 296.208 567.441 295.488 564.561 295.488C562.209 295.488 560.145 295.92 558.369 296.784L557.145 302.328L552.969 301.824L554.121 294.408ZM571.833 311.976V309.528C570.921 309.48 569.961 309.408 568.953 309.312C567.945 309.216 566.913 309.168 565.857 309.168C563.457 309.168 561.273 309.552 559.305 310.32C557.385 311.04 556.425 312.648 556.425 315.144C556.425 317.208 557.073 318.624 558.369 319.392C559.665 320.16 561.009 320.544 562.401 320.544C564.609 320.544 566.673 319.776 568.593 318.24C570.561 316.704 571.641 314.616 571.833 311.976ZM600.806 324H584.534V319.896H590.15V278.568H584.462V274.464H595.19V319.896H600.806V324Z" fill="black"/>
    <path d="M486.586 153.313C487.16 151.42 489.84 151.42 490.414 153.313L516.218 238.42C516.607 239.704 515.646 241 514.304 241H488.5H462.696C461.354 241 460.393 239.704 460.782 238.42L486.586 153.313Z" fill="#474747"/>
    <path d="M486.586 153.313C487.16 151.42 489.84 151.42 490.414 153.313L516.218 238.42C516.607 239.704 515.646 241 514.304 241H488.5H462.696C461.354 241 460.393 239.704 460.782 238.42L486.586 153.313Z" fill="#474747"/>
    <path d="M583.586 153.313C584.16 151.42 586.84 151.42 587.414 153.313L613.218 238.42C613.607 239.704 612.646 241 611.304 241H585.5H559.696C558.354 241 557.393 239.704 557.782 238.42L583.586 153.313Z" fill="#474747"/>
    <path d="M583.586 153.313C584.16 151.42 586.84 151.42 587.414 153.313L613.218 238.42C613.607 239.704 612.646 241 611.304 241H585.5H559.696C558.354 241 557.393 239.704 557.782 238.42L583.586 153.313Z" fill="#474747"/>
    <path d="M444.429 178.961C443.891 180.923 441.109 180.923 440.571 178.961L414.693 84.5286C414.344 83.2558 415.302 82 416.622 82H442.5H468.378C469.698 82 470.656 83.2558 470.307 84.5286L444.429 178.961Z" fill="#474747"/>
    <path d="M444.429 178.961C443.891 180.923 441.109 180.923 440.571 178.961L414.693 84.5286C414.344 83.2558 415.302 82 416.622 82H442.5H468.378C469.698 82 470.656 83.2558 470.307 84.5286L444.429 178.961Z" fill="#474747"/>
    <path d="M535.429 178.961C534.891 180.923 532.109 180.923 531.571 178.961L505.693 84.5286C505.344 83.2558 506.302 82 507.622 82H533.5H559.378C560.698 82 561.656 83.2558 561.307 84.5286L535.429 178.961Z" fill="#474747"/>
    <path d="M535.429 178.961C534.891 180.923 532.109 180.923 531.571 178.961L505.693 84.5286C505.344 83.2558 506.302 82 507.622 82H533.5H559.378C560.698 82 561.656 83.2558 561.307 84.5286L535.429 178.961Z" fill="#474747"/>
</svg>